<?xml version="1.0" encoding="utf-8" ?>
<svg xmlns="http://www.w3.org/2000/svg" xmlns:xlink="http://www.w3.org/1999/xlink" width="1024" height="1024">
	<path fill="#F0B35C" d="M0 0L1024 0L1024 1024L0 1024L0 0Z"/>
	<path fill="#010001" d="M551.549 30.208C570.442 28.1755 594.251 30.9084 612.254 37.0491C623.178 40.7751 633.351 45.8959 643.633 51.0701C637.806 50.4419 631.946 49.9016 626.082 49.8492C604.2 49.6537 581.841 57.9752 564.796 71.5822C560.942 74.6585 557.473 78.2924 553.97 81.7588Q564.621 84.4399 574.968 88.1243Q585.315 91.8087 595.263 96.4628C636.27 115.874 667.658 148.392 689.573 187.642C696.051 199.242 701.462 210.25 705.956 222.765C717.195 229.185 727.425 238.627 735.256 248.88Q735.993 249.86 736.706 250.858Q737.42 251.856 738.108 252.871Q738.797 253.887 739.46 254.918Q740.124 255.95 740.762 256.997Q741.401 258.045 742.013 259.107Q742.626 260.17 743.213 261.247Q743.799 262.325 744.359 263.416Q744.919 264.507 745.453 265.612Q745.986 266.717 746.492 267.834Q746.998 268.951 747.477 270.08Q747.956 271.21 748.407 272.35Q748.858 273.491 749.281 274.642Q749.705 275.794 750.1 276.955Q750.495 278.116 750.861 279.287Q751.228 280.457 751.566 281.636Q751.904 282.816 752.213 284.003Q752.522 285.19 752.802 286.384Q753.082 287.578 753.333 288.779Q753.584 289.98 753.805 291.186Q754.027 292.392 754.219 293.604Q754.411 294.815 754.574 296.031Q754.736 297.247 754.869 298.467Q755.002 299.686 755.105 300.908Q755.208 302.131 755.281 303.355Q755.354 304.579 755.397 305.805Q755.441 307.031 755.454 308.258Q755.468 309.484 755.451 310.711Q755.435 311.937 755.388 313.163Q755.342 314.389 755.266 315.613Q755.189 316.837 755.083 318.059Q754.977 319.281 754.841 320.5Q754.706 321.72 754.54 322.935C751.045 348.121 738.084 372.841 717.703 388.348Q711.642 430.85 706.253 473.443C745.926 475.837 785.731 476.807 825.437 478.706C839.229 479.366 853.359 478.958 867.068 480.469C870.67 480.866 874.169 481.654 877.443 483.261C884.212 486.584 889.272 493.623 891.043 500.893C893.172 509.634 890.431 540.781 890.018 551.832L885.229 677.806C885.027 682.947 883.23 705.589 884.444 709.201C885.849 709.368 887.211 709.614 888.412 710.403C894.269 714.251 896.535 724.609 897.663 731.055C900.727 748.564 901.616 788.533 891.124 802.877C888.189 806.891 884.367 807.971 879.708 808.731Q878.783 839.217 877.531 869.691C877.19 879.068 877.415 888.529 876.848 897.885C876.164 909.183 872.404 920.879 863.627 928.492C858.977 932.526 853.711 934.612 847.663 935.485C835.515 937.24 820.879 935.273 808.489 934.742Q767.01 933.103 725.584 930.429C724.4 936.039 723.156 941.242 719.773 946.008C717.004 949.91 713.36 952.704 709.245 955.037C682.946 969.949 619.331 981.244 587.62 986.303Q575.468 988.317 563.259 989.947Q551.05 991.578 538.795 992.824Q526.541 994.07 514.253 994.93Q501.966 995.791 489.657 996.265Q477.349 996.738 465.032 996.825Q452.714 996.912 440.4 996.611Q428.087 996.311 415.788 995.624Q403.49 994.936 391.219 993.863C376.425 992.559 361.619 991.14 346.964 988.69C284.029 978.17 220.908 960.045 167.813 923.552C159.112 917.572 146.728 908.847 140.675 900.355C140.47 894.892 141.018 889.253 141.296 883.782Q142.014 868.858 143.078 853.955C129.284 827.258 125.865 802.911 129.08 773.262C137.379 696.744 181.554 623.26 236.511 570.797C249.828 558.083 264.377 547.604 278.665 536.108C278.853 531.285 278.908 526.66 281.094 522.223C285.033 514.233 292.889 510.616 300.868 507.933C298.32 495.585 294.847 483.451 292.525 471.05C285.043 431.086 282.883 391.34 284.574 350.742C282.963 349.761 281.902 348.755 280.823 347.196C277.044 341.74 273.722 332.808 275.246 326.183C276.654 320.068 283.464 316.494 288.292 313.289C290.623 303.856 291.352 293.837 293.358 284.274Q295.41 274.101 298.015 264.057Q300.621 254.012 303.773 244.124Q306.925 234.237 310.614 224.538Q314.302 214.838 318.517 205.355C338.637 160.175 369.278 120.859 413.927 97.9577C424.625 92.4705 436.042 88.539 447.246 84.2345Q450.522 79.5554 454.2 75.1857C477.784 47.0579 515.834 33.2537 551.549 30.208Z"/>
	<path fill="#F9FBFC" d="M305.148 522.599C305.52 524.111 306.131 525.525 306.712 526.966C305.286 527.739 304.453 528.3 302.792 528.187C302.221 528.149 301.649 528.154 301.077 528.135C300.257 526.932 299.801 526.559 299.774 525.076C300.926 523.661 303.455 523.172 305.148 522.599Z"/>
	<path fill="#1151A8" d="M306.712 526.966C308.222 531.61 309.96 536.286 311.089 541.036C307.659 536.937 303.759 532.764 301.077 528.135C301.649 528.154 302.221 528.149 302.792 528.187C304.453 528.3 305.286 527.739 306.712 526.966Z"/>
	<defs>
		<linearGradient id="gradient_0" gradientUnits="userSpaceOnUse" x1="536.04364" y1="318.57858" x2="563.88043" y2="322.90961">
			<stop offset="0" stop-color="#92A2A7"/>
			<stop offset="1" stop-color="#C2C5CE"/>
		</linearGradient>
	</defs>
	<path fill="url(#gradient_0)" d="M561.296 311.659C564.234 311.435 566.916 311.936 569.796 312.446C557.855 315.984 548.419 320.28 538.494 327.888C536.537 329.299 534.653 330.825 532.746 332.304C533.786 329.252 534.228 326.093 535.51 323.103C542.903 316.7 551.663 313.038 561.296 311.659Z"/>
	<path fill="#F9FBFC" d="M630.834 294.085C632.828 294.067 634.81 294.125 636.73 294.726C639.159 295.487 641.45 297.413 642.536 299.724C643.539 301.857 643.631 304.192 642.738 306.378C641.469 309.484 639.02 310.899 636.104 312.235C633.667 312.485 631.089 312.529 628.772 311.607C626.356 310.647 624.341 308.65 623.415 306.217C622.542 303.923 622.61 301.277 623.76 299.091C625.37 296.027 627.636 294.958 630.834 294.085Z"/>
	<path fill="#6C6866" d="M717.731 920.029C743.167 920.433 768.756 922.541 794.177 923.833C809.73 924.623 826.146 924.112 841.519 926.484C841.673 926.564 841.82 926.658 841.98 926.724C843.143 927.208 844.274 927.027 845.459 927.288C845.254 927.283 845.05 927.27 844.845 927.275C843.603 927.305 842.345 927.427 841.104 927.506L840.69 928.04C829.358 928.99 816.318 927.273 804.836 926.845L757.43 924.711C745.684 924.173 733.884 923.847 722.168 922.841C720.732 921.848 719.211 920.956 717.731 920.029Z"/>
	<path fill="#7CD0E0" d="M631.217 868.384C632.154 876.728 629.021 896.63 627.892 905.411L604.868 905.601C605.225 903.674 610.893 898.235 612.412 896.28C619.363 887.326 625.207 877.959 631.217 868.384Z"/>
	<path fill="#4A93CC" d="M883.62 717.234C885.381 718.082 886.331 718.807 887.239 720.575C894.38 734.489 890.966 783.325 886.002 798.475C885.1 799.299 883.715 799.999 882.497 800.163C881.372 800.315 881.276 800.253 880.445 799.587C879.624 791.384 880.844 782.055 881.171 773.781Q882.211 745.5 883.62 717.234Z"/>
	<path fill="#4A93CC" d="M271.974 592.36C273.723 594.053 274.946 599.493 275.875 601.989C278.361 608.666 281.378 615.451 285.076 621.551C289.713 629.201 295.326 636.26 301.328 642.881C305.146 647.094 309.72 651.279 312.769 656.046C306.194 649.928 298.955 645.39 290.512 642.347C274.043 636.993 259.279 639.875 243.913 646.958C251.06 627.707 261.026 609.673 271.974 592.36Z"/>
	<path fill="#3F9A54" d="M270.401 562.403C271.118 563.149 270.088 582.74 270.447 585.979C259.451 599.578 250.845 614.431 243.77 630.402C241.101 636.427 238.741 645.18 235.221 650.486C232.192 655.053 225.743 658.842 221.636 662.582C217.16 666.658 213.102 671.085 209.185 675.691L208.774 675.828C208.444 672.986 213.851 663.056 215.317 659.914C231.123 626.023 248.101 592.542 270.401 562.403Z"/>
	<path fill="#773B2A" d="M475.458 468.29C487.988 471.121 499.027 478.435 507.481 487.932C517.497 499.184 525.086 510.028 524.183 525.543C513.353 525.716 501.926 521.547 493.615 514.61C480.486 503.651 476.955 484.465 475.458 468.29Z"/>
	<path fill="#3C393E" d="M863.897 489.211C866.389 488.916 868.877 488.962 871.382 488.962C871.444 489 871.505 489.038 871.567 489.075C873.411 490.165 875.1 491.194 876.592 492.763C879.509 495.83 882.331 501.397 882.721 505.721C883.235 511.423 882.646 517.641 882.434 523.362L881.213 554.59L877.709 655.441L877.386 656.166C875.119 656.87 872.347 656.476 869.986 656.392C869.839 623.328 871.17 590.149 872.05 557.095C872.43 542.829 873.502 528.392 873.005 514.13C872.803 508.309 872.013 502.457 869.297 497.228C868.176 495.071 863.783 491.091 863.897 489.211Z"/>
	<defs>
		<linearGradient id="gradient_1" gradientUnits="userSpaceOnUse" x1="761.8017" y1="660.59882" x2="759.39221" y2="615.97168">
			<stop offset="0" stop-color="#423F48"/>
			<stop offset="1" stop-color="#384868"/>
		</linearGradient>
	</defs>
	<path fill="url(#gradient_1)" d="M656.488 618.893C661.031 626.724 665.734 632.778 674.894 635.175C688.288 638.681 703.259 638.98 717.067 640.398C728.282 641.55 739.486 643.046 750.722 643.968Q799.422 647.746 848.267 647.545C853.956 647.506 861.2 648.375 866.655 647.179C867.049 645.547 867.281 643.988 867.447 642.319C867.831 646.901 867.211 651.811 867.13 656.431C846.703 654.731 826.153 654.046 805.691 652.819Q730.383 647.953 654.982 644.827Q655.644 631.855 656.488 618.893Z"/>
	<path fill="#F0B35C" d="M344.878 290.055C345.787 289.942 345.317 289.9 346.28 290.264C345.485 299.315 345.17 308.201 346.03 317.269C333.484 321.411 320.966 326.098 309.033 331.789C305.614 333.419 302.183 335.128 298.904 337.027C295.224 339.158 289.894 343.74 285.882 344.614L285.045 343.596C283.912 341.501 282.844 339.397 281.928 337.197C280.579 333.955 279.33 329.859 280.915 326.473C282.74 322.573 287.911 319.395 291.36 316.994Q297.509 312.666 303.96 308.8Q310.41 304.935 317.127 301.554Q323.844 298.173 330.791 295.294Q337.738 292.416 344.878 290.055Z"/>
	<defs>
		<linearGradient id="gradient_2" gradientUnits="userSpaceOnUse" x1="854.12103" y1="791.19464" x2="880.86145" y2="790.28906">
			<stop offset="0" stop-color="#7D7A7A"/>
			<stop offset="1" stop-color="#798686"/>
		</linearGradient>
	</defs>
	<path fill="url(#gradient_2)" d="M869.588 660.502L877.592 660.459Q873.588 743.657 871.014 826.912L869.217 873.523C868.868 884.029 869.256 895.067 867.454 905.403C866.306 911.987 863.913 917.748 858.832 922.339C853.866 926.825 847.713 928.421 841.144 928.09C840.992 928.082 840.842 928.056 840.69 928.04L841.104 927.506C842.345 927.427 843.603 927.305 844.845 927.275C845.05 927.27 845.254 927.283 845.459 927.288C844.274 927.027 843.143 927.208 841.98 926.724C841.82 926.658 841.673 926.564 841.519 926.484C846.798 926.307 852.748 925.875 856.532 921.658C858.119 919.891 858.668 918.415 858.963 916.047C860.286 905.439 860.33 894.381 860.739 883.694L862.934 827.496C865.079 782.24 867.525 737.074 868.696 691.776C868.965 681.343 869.55 670.946 869.588 660.502Z"/>
	<path fill="#F9FBFC" d="M599.769 633.356C605.583 640.724 612.19 672.001 613.496 682.061C626.634 678.373 636.47 670.369 646.02 660.996C645.555 679.948 644.473 698.879 644.013 717.827C638.829 723.237 632.606 727.834 626.683 732.396C618.926 738.195 610.147 743.567 601.26 747.405C604.449 739.168 607.803 730.997 610.941 722.739C605.842 714.22 602.062 704.078 597.801 695.035C592.792 684.403 587.159 674.049 582.43 663.291C590.82 655.361 596.111 644.137 599.769 633.356Z"/>
	<path fill="#F9FBFC" d="M647.655 584.052L648.968 584.068C650.431 586.348 647.075 640.471 646.656 648.486C637.75 658.947 628.8 669.34 616.815 676.393C615.929 668.832 614.365 661.328 612.647 653.918C607.281 634.089 599.454 615.866 587.157 599.314C607.737 595.09 627.499 589.912 647.655 584.052Z"/>
	<path fill="#4A93CC" d="M549.851 35.7099C553.774 35.1325 558.153 35.3362 562.138 35.3296C584.137 35.293 604.164 39.399 624.954 46.446C610.327 46.3673 597.37 47.9367 583.814 53.8625C576.242 57.1728 554.54 69.7439 551.69 77.3283C551.341 78.255 550.875 79.1024 550.428 79.9857C550.052 80.244 549.739 80.6331 549.301 80.7607C547.424 81.3076 529.301 78.1501 525.513 77.8486C501.843 74.6218 476.333 78.3312 453.126 82.997Q454.453 81.1947 455.913 79.498C478.657 53.2113 515.733 38.2413 549.851 35.7099Z"/>
	<path fill="#D6DCDF" d="M575.312 318.474C585.162 317.041 594.675 321.394 602.436 327.163C621.023 340.98 631.899 365.887 635.051 388.368C641.671 435.573 627.288 486.452 598.569 524.222C593.387 531.038 587.769 537.379 581.204 542.897C581.667 539.507 582.226 536.101 582.561 532.697C582.783 531.331 582.972 530.159 583.833 529.038C591.532 519.013 597.262 505.715 601.337 493.732C618.303 443.842 621.042 393.737 595.717 345.995C590.415 335.999 580.489 329.181 575.667 319.215L575.312 318.474Z"/>
	<path fill="#3F9A54" d="M579.134 600.727C579.89 600.54 580.126 600.634 580.86 600.822C587.825 606.462 592.517 617.962 596.787 625.883C594.861 633.382 592.576 640.653 588.653 647.376C582.626 657.704 573.109 668.207 561.09 671.215C547.921 674.511 534.616 667.473 523.624 660.988C510.544 652.609 504.294 645.246 494.974 633.127C498.204 624.134 503.018 612.235 508.513 604.547C532.414 605.207 555.428 603.567 579.134 600.727Z"/>
	<path fill="#F0B35C" d="M658.778 217.7C663.811 216.845 669.927 217.228 675.013 217.797C696.387 220.191 716.691 232.998 729.841 249.758C744.947 269.012 751.402 294.784 748.452 318.964C745.114 346.332 731.303 369.871 709.55 386.607C689.974 401.668 666.73 404.127 643.03 401.037C642.138 394.151 641.188 387.353 640.019 380.505Q642.822 381.374 645.685 382.02Q648.548 382.666 651.453 383.086Q654.357 383.505 657.286 383.695Q660.214 383.886 663.149 383.846C683.609 383.463 699.954 374.735 713.926 360.329C724.16 349.109 730.623 334.012 732.46 318.994C734.914 298.937 729.167 277.313 716.669 261.405Q715.657 260.091 714.582 258.829Q713.506 257.567 712.37 256.36Q711.233 255.153 710.038 254.003Q708.843 252.854 707.593 251.765Q706.343 250.676 705.04 249.65Q703.737 248.625 702.385 247.665Q701.033 246.705 699.635 245.813Q698.237 244.921 696.797 244.1Q695.357 243.278 693.878 242.529Q692.399 241.779 690.884 241.104Q689.37 240.429 687.824 239.83Q686.278 239.23 684.704 238.708Q683.131 238.186 681.533 237.743Q679.935 237.299 678.318 236.935Q676.7 236.571 675.066 236.288Q673.433 236.004 671.787 235.802Q670.25 235.624 668.706 235.523Q667.162 235.421 665.615 235.396Q664.068 235.371 662.521 235.422Q660.975 235.474 659.433 235.602Q657.891 235.729 656.357 235.933Q654.823 236.137 653.302 236.416Q651.78 236.696 650.274 237.05Q648.767 237.404 647.281 237.833Q645.794 238.261 644.33 238.762Q642.866 239.263 641.429 239.836Q639.992 240.409 638.584 241.052Q637.177 241.696 635.803 242.408Q634.43 243.12 633.093 243.899Q631.756 244.678 630.459 245.522Q629.163 246.366 627.909 247.274Q626.656 248.181 625.449 249.149C609.358 261.895 602.06 276.641 599.676 296.624C594.711 290.665 589.707 286.87 582.81 283.357C587.4 270.62 592.079 259.163 600.838 248.59C616.074 230.196 634.906 219.973 658.778 217.7Z"/>
	<path fill="#3F9A54" d="M276.094 544.025C276.451 545.545 272.932 556.018 271.908 557.721C269.531 561.674 265.487 565.315 262.77 569.22C255.34 579.898 248.709 590.982 242.348 602.326C231.871 621.013 222.358 639.956 213.257 659.34C209.719 666.874 207.047 674.894 203.198 682.262C200.622 687.194 196.805 691.679 193.676 696.29Q187.236 705.941 181.902 716.244C165.709 747.113 155.852 780.359 148.956 814.383C147.272 822.693 146.338 831.127 144.64 839.432L142.458 833.685C135.476 812.191 134.827 790.832 137.976 768.625C140.803 748.683 145.191 728.936 152.24 710.032C174.214 651.096 225.666 581.958 276.094 544.025Z"/>
	<path fill="#3F9A54" d="M579.252 666.388C581.764 669.147 593.552 697.419 595.957 702.736Q600.799 713.218 605.864 723.594C599.619 744.03 578.699 781.261 562.441 795.096C553.901 790.285 546.685 783.418 539.836 776.497C534.27 770.832 528.706 765 523.657 758.865C517.334 751.182 511.364 742.857 504.48 735.684C507.072 727.197 510.722 718.954 513.471 710.489C517.993 696.566 521.451 682.407 524.804 668.171C532.316 672.812 542.284 676.541 551.131 677.299C562.085 678.236 571.18 673.241 579.252 666.388Z"/>
	<path fill="#F9FBFC" d="M659.239 240.175Q661.773 239.883 664.322 239.837Q666.872 239.792 669.415 239.993Q671.957 240.194 674.468 240.64Q676.979 241.085 679.435 241.772C696.202 246.367 710.687 258.246 719.11 273.384Q719.984 274.962 720.781 276.581Q721.577 278.2 722.294 279.856Q723.01 281.512 723.646 283.201Q724.281 284.89 724.834 286.607Q725.386 288.325 725.855 290.067Q726.323 291.81 726.706 293.573Q727.089 295.336 727.386 297.116Q727.683 298.896 727.893 300.688Q728.103 302.48 728.226 304.28Q728.348 306.08 728.383 307.884Q728.418 309.688 728.365 311.491Q728.313 313.295 728.172 315.094Q728.032 316.893 727.804 318.682Q727.576 320.472 727.262 322.249Q726.948 324.026 726.547 325.785Q726.147 327.544 725.661 329.282C720.76 346.403 709.372 361.928 693.597 370.549C675.61 380.379 657.723 380.324 638.511 374.63C636.11 367.187 632.825 360.085 630.538 352.657C638.425 354.813 644.639 355.685 652.351 352.214C657.067 349.067 660.592 345.487 663.571 340.64C669.814 330.483 671.583 317.621 668.7 306.072C666.331 296.579 660.847 287.672 652.222 282.675C647.119 279.718 641.46 278.631 635.708 280.229C628.254 282.301 622.017 288.931 618.36 295.555C612.08 306.93 612.853 318.871 616.346 330.943L606.92 322.325C606.731 317.728 605.596 313.229 605.028 308.669C602.993 292.314 607.213 276.729 617.314 263.815Q618.266 262.599 619.276 261.432Q620.286 260.264 621.352 259.148Q622.419 258.031 623.539 256.969Q624.658 255.906 625.829 254.899Q627 253.893 628.219 252.945Q629.437 251.998 630.701 251.111Q631.965 250.224 633.271 249.401Q634.577 248.578 635.922 247.819Q637.267 247.061 638.647 246.37Q640.028 245.678 641.44 245.056Q642.853 244.433 644.295 243.881Q645.736 243.328 647.203 242.847Q648.671 242.366 650.159 241.958Q651.648 241.55 653.156 241.215Q654.663 240.88 656.185 240.62Q657.706 240.36 659.239 240.175Z"/>
	<path fill="#F9FBFC" d="M280.68 549.366C282.273 551.092 286.731 562.833 288.265 565.982Q291.471 572.626 295.308 578.927C334.795 642.742 403.398 685.605 475.576 702.51C476.826 696.418 477.349 690.153 478.517 684.027C481.111 670.42 487.065 649.797 492.702 637.52C500.443 650.112 508.246 658.528 521.027 666.071C519.308 673.682 516.598 681.191 514.214 688.621C507.77 708.904 497.921 734.878 494.856 755.283Q491.597 754.613 488.353 753.877Q485.108 753.142 481.879 752.341Q478.65 751.54 475.437 750.675Q472.225 749.81 469.03 748.88Q465.836 747.951 462.66 746.957Q459.485 745.964 456.331 744.907Q453.176 743.85 450.043 742.729Q446.911 741.609 443.801 740.426Q440.691 739.243 437.606 737.998Q434.521 736.753 431.461 735.447Q428.402 734.14 425.369 732.772Q422.336 731.404 419.331 729.976Q416.327 728.547 413.351 727.059Q410.376 725.57 407.431 724.022Q404.486 722.474 401.573 720.868Q398.659 719.261 395.779 717.596Q392.899 715.931 390.052 714.209Q387.206 712.486 384.394 710.707Q381.583 708.928 378.808 707.093Q376.033 705.257 373.296 703.367Q370.558 701.476 367.859 699.531Q365.16 697.586 362.5 695.587Q359.841 693.588 357.222 691.536Q354.603 689.484 352.026 687.38Q349.449 685.275 346.915 683.12Q344.381 680.965 341.89 678.759Q339.399 676.553 336.954 674.297Q334.508 672.042 332.108 669.738Q329.708 667.434 327.355 665.082Q325.001 662.73 322.696 660.332Q320.39 657.933 318.133 655.489Q315.876 653.044 313.669 650.555C299.548 634.59 286.667 615.036 279.286 595.041C278.388 592.609 276.574 588.363 276.652 585.762C276.686 584.628 277.421 583.297 277.496 582.009C276.98 581.551 276.229 580.993 275.918 580.365C273.857 576.206 278.965 554.74 280.68 549.366Z"/>
	<path fill="#F9FBFC" d="M302.208 513.506L302.546 513.617C303.796 515.174 304.037 518.118 304.458 520.068C302.262 520.416 299.038 520.689 297.236 522.023C296.212 522.781 295.836 523.697 295.72 524.936C295.318 529.207 299.326 535.067 302.04 538.252C309.006 546.428 318.648 552.57 327.657 558.29C380.77 592.013 442.461 598.993 503.67 603.574C490.773 626.034 481.359 650.969 475.166 676.087C473.252 682.834 472.447 689.958 471.434 696.884Q460.701 693.615 450.234 689.577C398.04 669.57 350.731 640.738 315.112 596.896C306.689 586.528 298.687 575.898 293.265 563.592C288.985 553.876 281.426 536.156 285.805 525.655C288.726 518.652 295.666 516.041 302.208 513.506Z"/>
	<path fill="#C4C3BE" d="M477.818 395.647C494.337 387.639 507.617 375.173 518.27 360.343C520.908 356.671 522.713 352.525 525.64 349.045C537.07 335.452 556.956 319.971 575.312 318.474L575.667 319.215C580.489 329.181 590.415 335.999 595.717 345.995C621.042 393.737 618.303 443.842 601.337 493.732C597.262 505.715 591.532 519.013 583.833 529.038C582.972 530.159 582.783 531.331 582.561 532.697Q582.589 529.97 582.518 527.244C581.354 491.585 550.747 458.555 520.287 443.424C510.119 438.373 496.68 436.083 488.376 428.164C478.874 419.102 478.023 408.031 477.818 395.647Z"/>
	<path fill="#010001" d="M529.306 387.36L531.173 387.716C531.889 388.367 532.333 388.557 532.603 389.534C533.092 391.3 532.527 392.61 531.581 394.08C530.421 395.884 529.262 396.238 527.3 396.679C526.336 396.298 525.155 395.803 524.456 395.009C523.526 393.952 523.655 393.385 523.839 392.132C525.194 390.006 527.274 388.78 529.306 387.36Z"/>
	<path fill="#7CD0E0" d="M330.288 676.42C332.916 678.273 335.355 681.039 337.732 683.241C343.213 688.318 348.707 693.393 354.676 697.896C364.481 705.292 374.507 712.723 384.986 719.144Q388.162 721.066 391.389 722.902Q394.615 724.739 397.891 726.487Q401.166 728.235 404.487 729.894Q407.808 731.554 411.172 733.123Q414.537 734.692 417.943 736.17Q421.349 737.647 424.793 739.033Q428.237 740.418 431.718 741.71Q435.198 743.002 438.712 744.199Q442.227 745.397 445.772 746.499Q449.317 747.601 452.89 748.607Q456.464 749.613 460.063 750.523Q463.663 751.432 467.286 752.244Q470.908 753.056 474.551 753.769Q478.195 754.483 481.856 755.099Q485.517 755.714 489.193 756.23Q492.87 756.746 496.559 757.163C498.027 750.975 500.142 744.982 502.159 738.957C504.309 743.025 507.494 746.767 510.319 750.396C523.096 766.81 543.998 790.472 562.357 799.818C578.021 792.102 591.389 768.147 599.137 752.758C614.423 748.458 629.853 737.618 642.73 728.5C642.228 756.05 639.534 783.772 637.794 811.279L634.968 805.009C631.814 799.02 627.438 793.976 620.95 791.5C612.886 788.422 604.248 790.265 596.698 793.814C569.077 806.798 540.153 861.411 530.001 889.137L446.998 863.041C420.856 854.651 394.953 845.915 368.451 838.693C371.471 792.085 365.83 742.526 344.722 700.334C340.54 691.977 335.433 684.203 330.288 676.42Z"/>
	<path fill="#F0B35C" d="M431.281 214.2C449.364 211.605 470.8 218.115 485.941 227.786C511.04 243.817 522.124 265.714 528.227 293.957C537.613 286.942 550.247 282.351 562.047 283.064C577.319 283.985 589.884 291.887 599.814 303.097C600.244 308.658 601.398 314.137 602.568 319.58C591.781 313.011 570.196 305.304 557.559 306.893C549.349 307.926 533.575 313.717 528.89 320.742C526.947 323.655 526.873 328.304 525.786 331.659C522.06 343.155 516.29 353.219 508.854 362.671Q508.352 363.32 507.838 363.959C492.879 382.68 471.18 395.722 447.127 398.171C423.884 400.537 401.448 393.012 383.559 378.234C365.087 362.975 352.271 339.292 350.107 315.388Q349.997 314.204 349.916 313.017Q349.835 311.831 349.784 310.643Q349.733 309.455 349.711 308.265Q349.689 307.076 349.697 305.887Q349.704 304.698 349.741 303.509Q349.778 302.321 349.845 301.133Q349.911 299.946 350.007 298.761Q350.102 297.575 350.228 296.393Q350.353 295.21 350.507 294.031Q350.661 292.852 350.845 291.677Q351.028 290.502 351.241 289.331Q351.453 288.161 351.694 286.997Q351.936 285.832 352.206 284.674Q352.476 283.516 352.775 282.365Q353.073 281.214 353.401 280.07Q353.728 278.927 354.083 277.792Q354.438 276.657 354.822 275.531Q355.205 274.406 355.616 273.29Q356.027 272.174 356.466 271.068Q356.904 269.963 357.37 268.869Q357.836 267.774 358.328 266.692Q358.821 265.61 359.34 264.54Q359.86 263.47 360.405 262.413Q360.951 261.357 361.523 260.314Q362.094 259.271 362.692 258.243Q363.289 257.214 363.912 256.201Q364.534 255.188 365.182 254.19Q365.829 253.193 366.501 252.212Q367.173 251.23 367.869 250.266Q368.565 249.302 369.285 248.355Q370.005 247.408 370.747 246.48Q371.49 245.551 372.256 244.641C386.801 227.232 408.761 216.21 431.281 214.2Z"/>
	<path fill="#010001" d="M430.981 231.194C448.451 229.187 465.147 233.833 479.255 244.215Q480.805 245.36 482.296 246.581Q483.788 247.801 485.217 249.093Q486.646 250.386 488.01 251.747Q489.375 253.108 490.67 254.535Q491.965 255.962 493.189 257.451Q494.412 258.939 495.561 260.487Q496.709 262.034 497.78 263.636Q498.851 265.238 499.842 266.891Q500.833 268.544 501.741 270.244Q502.649 271.943 503.472 273.686Q504.295 275.428 505.032 277.209Q505.768 278.989 506.416 280.804Q507.064 282.619 507.621 284.464Q508.179 286.309 508.645 288.178Q509.111 290.048 509.484 291.939Q509.857 293.829 510.137 295.736C512.963 315.61 508.347 334.961 496.247 351.057C484.233 367.039 467.447 376.622 447.704 379.328C447.637 379.34 447.571 379.356 447.503 379.364Q445.86 379.551 444.21 379.658Q442.561 379.765 440.907 379.793Q439.254 379.82 437.602 379.768Q435.949 379.715 434.301 379.583Q432.653 379.451 431.014 379.24Q429.374 379.028 427.746 378.738Q426.118 378.448 424.507 378.079Q422.895 377.711 421.303 377.265Q419.711 376.819 418.142 376.297Q416.574 375.774 415.032 375.177Q413.49 374.58 411.979 373.909Q410.468 373.238 408.991 372.495Q407.514 371.751 406.075 370.938Q404.636 370.124 403.237 369.242Q401.839 368.36 400.485 367.411Q399.131 366.463 397.824 365.45Q396.346 364.306 394.926 363.089Q393.506 361.873 392.148 360.589Q390.79 359.304 389.497 357.954Q388.204 356.603 386.979 355.191Q385.755 353.778 384.602 352.307Q383.448 350.835 382.369 349.309Q381.29 347.782 380.288 346.204Q379.285 344.626 378.362 343.001Q377.439 341.375 376.597 339.706Q375.755 338.037 374.997 336.328Q374.239 334.619 373.566 332.875Q372.893 331.13 372.307 329.355Q371.722 327.58 371.224 325.778Q370.727 323.976 370.319 322.151Q369.912 320.327 369.595 318.484Q369.278 316.642 369.052 314.786C366.45 293.971 373.007 271.977 386.031 255.579C396.967 241.809 413.623 233.201 430.981 231.194Z"/>
	<path fill="#F9FBFC" d="M432.12 235.676Q433.546 235.524 434.977 235.436Q436.408 235.349 437.842 235.327Q439.276 235.305 440.709 235.348Q442.142 235.392 443.572 235.501Q445.001 235.609 446.425 235.783Q447.848 235.957 449.262 236.196Q450.676 236.434 452.077 236.737Q453.479 237.04 454.865 237.406Q456.251 237.773 457.62 238.202Q458.988 238.631 460.335 239.122Q461.682 239.613 463.005 240.165Q464.329 240.718 465.625 241.329Q466.922 241.941 468.19 242.612Q469.457 243.282 470.693 244.009Q471.928 244.737 473.13 245.52Q474.331 246.303 475.495 247.14Q476.247 247.677 476.986 248.232Q477.725 248.787 478.449 249.361Q479.174 249.935 479.884 250.526Q480.594 251.118 481.288 251.728Q481.983 252.337 482.662 252.964Q483.342 253.59 484.005 254.234Q484.668 254.878 485.315 255.538Q485.962 256.198 486.592 256.874Q487.222 257.55 487.835 258.242Q488.447 258.933 489.043 259.64Q489.638 260.347 490.215 261.069Q490.792 261.791 491.351 262.527Q491.91 263.263 492.451 264.013Q492.991 264.762 493.512 265.525Q494.033 266.289 494.535 267.065Q495.037 267.841 495.519 268.629Q496.002 269.417 496.464 270.218Q496.926 271.018 497.368 271.83Q497.81 272.641 498.231 273.464Q498.653 274.286 499.053 275.119Q499.454 275.952 499.833 276.795Q500.213 277.637 500.571 278.489Q500.929 279.341 501.266 280.202Q501.603 281.062 501.917 281.931Q502.232 282.8 502.525 283.677Q502.818 284.553 503.089 285.437Q503.36 286.32 503.608 287.211Q503.857 288.101 504.083 288.997Q504.309 289.893 504.513 290.794Q504.716 291.696 504.897 292.602Q505.077 293.509 505.235 294.419Q505.393 295.33 505.528 296.244Q505.789 297.958 505.964 299.683Q506.14 301.408 506.23 303.139Q506.32 304.87 506.325 306.604Q506.33 308.338 506.249 310.07Q506.168 311.801 506.001 313.527Q505.835 315.253 505.584 316.968Q505.333 318.684 504.997 320.385Q504.662 322.086 504.243 323.768Q503.823 325.45 503.322 327.11Q502.82 328.769 502.237 330.402Q501.654 332.035 500.991 333.637Q500.329 335.239 499.588 336.806Q498.847 338.374 498.029 339.903Q497.212 341.431 496.32 342.918Q495.428 344.405 494.463 345.846Q493.499 347.286 492.465 348.678C481.354 363.6 465.916 372.205 447.618 374.854C431.633 376.304 414.86 372.326 401.845 362.696C386.885 351.628 376.172 333.505 373.63 315.085Q373.385 313.27 373.23 311.446Q373.075 309.621 373.011 307.791Q372.948 305.961 372.975 304.129Q373.002 302.298 373.12 300.471Q373.239 298.643 373.448 296.824Q373.657 295.005 373.956 293.198Q374.255 291.392 374.644 289.602Q375.033 287.813 375.51 286.045Q375.987 284.277 376.552 282.535Q377.117 280.793 377.767 279.081Q378.418 277.369 379.152 275.692Q379.887 274.014 380.705 272.375Q381.522 270.737 382.42 269.141Q383.318 267.545 384.294 265.995Q385.27 264.446 386.322 262.947Q387.374 261.448 388.499 260.003C399.352 245.897 414.669 237.967 432.12 235.676Z"/>
	<path fill="#010001" d="M421.602 277.58C426.928 277.224 432.094 278.103 436.854 280.585C445.347 285.014 450.609 293.957 453.184 302.915C456.541 314.593 455.235 327.725 449.234 338.336C444.674 346.401 438.482 351.095 429.527 353.519C423.244 353.762 418.008 352.944 412.564 349.619C404.208 344.517 398.331 335.634 396.133 326.17C393.396 314.384 395.069 302.071 401.588 291.794C406.39 284.223 412.814 279.5 421.602 277.58Z"/>
	<path fill="#F9FBFC" d="M418.163 294.606C419.834 294.608 421.58 294.685 423.194 295.144C426.061 295.96 428.624 297.841 429.975 300.532Q430.164 300.905 430.314 301.295Q430.463 301.685 430.571 302.089Q430.679 302.493 430.745 302.906Q430.81 303.319 430.832 303.736Q430.854 304.154 430.833 304.571Q430.811 304.989 430.746 305.402Q430.681 305.815 430.574 306.219Q430.466 306.622 430.317 307.013C429.04 310.266 426.198 311.884 423.112 313.09C420.975 313.44 418.928 313.437 416.882 312.624Q416.414 312.437 415.968 312.205Q415.521 311.972 415.099 311.697Q414.678 311.421 414.286 311.105Q413.893 310.789 413.535 310.436Q413.176 310.082 412.854 309.695Q412.531 309.308 412.249 308.891Q411.967 308.474 411.728 308.031Q411.488 307.588 411.294 307.123C410.275 304.716 410.275 302.014 411.381 299.636C412.805 296.573 415.11 295.611 418.163 294.606Z"/>
	<path fill="#617792" d="M672.706 480.636C681.071 480.698 689.453 481.331 697.812 481.704L751.877 484.237C787.188 485.804 822.553 486.554 857.846 488.591Q858.403 488.974 858.94 489.384Q859.478 489.794 859.994 490.229Q860.511 490.665 861.005 491.126Q861.5 491.587 861.971 492.071Q862.442 492.556 862.888 493.063Q863.335 493.57 863.756 494.099Q864.177 494.627 864.572 495.176Q864.966 495.725 865.333 496.292Q865.7 496.86 866.039 497.445Q866.377 498.03 866.686 498.631Q866.996 499.231 867.275 499.847Q867.554 500.462 867.803 501.091Q868.051 501.719 868.269 502.359Q868.486 502.999 868.671 503.649Q868.857 504.299 869.01 504.957Q869.163 505.615 869.284 506.28C871.37 518.027 869.631 539.551 869.32 552.178Q868.095 597.242 867.447 642.319C867.281 643.988 867.049 645.547 866.655 647.179C861.2 648.375 853.956 647.506 848.267 647.545Q799.422 647.746 750.722 643.968C739.486 643.046 728.282 641.55 717.067 640.398C703.259 638.98 688.288 638.681 674.894 635.175C665.734 632.778 661.031 626.724 656.488 618.893C656.393 602.698 658.271 586.514 658.449 570.319L658.649 527.334C658.686 518.592 658.079 509.266 659.592 500.649C660.646 494.646 663.164 488.706 667.513 484.353C669.046 482.82 670.798 481.643 672.706 480.636Z"/>
	<path fill="#010001" d="M681.164 506.606Q683.949 506.346 686.746 506.366C697.263 506.392 707.855 507.328 718.355 507.92L766.565 510.392Q796.485 511.793 826.386 513.556C836.666 514.133 847.272 514.266 857.497 515.422C858.945 515.586 859.45 515.651 860.49 516.694C861.053 518.895 855.768 621.169 854.585 627.957C847.062 628.283 839.208 627.507 831.683 627.148L784.167 624.598L705.396 620.975C696.252 620.525 686.942 620.556 677.834 619.828C677.089 619.768 676.598 619.568 675.97 619.176C675.645 618.288 675.448 617.516 675.361 616.567C674.875 611.271 675.333 605.7 675.507 600.386Q676.254 582.413 677.219 564.45Q677.898 545.762 678.817 527.085C679.097 521.376 679.083 515.403 679.821 509.744C680 508.376 680.287 507.659 681.164 506.606Z"/>
	<path fill="#F9FBFC" d="M683.446 510.046C719.007 511.386 754.556 513.785 790.098 515.58L832.398 517.803C840.862 518.263 849.507 518.392 857.896 519.602Q856.432 552.247 854.59 584.872C853.856 597.999 852.814 611.125 852.4 624.267C847.025 624.614 841.095 623.832 835.693 623.572L799.032 621.706Q738.898 618.437 678.727 615.98C678.737 597.51 680.239 578.944 681.136 560.499C681.952 543.705 682.121 526.801 683.446 510.046Z"/>
	<path fill="#4A93CC" d="M502.328 84.7386C531.257 84.9381 559.756 88.3869 586.39 100.517Q589.336 101.836 592.239 103.248Q595.142 104.66 597.999 106.163Q600.856 107.665 603.664 109.258Q606.472 110.85 609.229 112.53Q611.985 114.21 614.687 115.977Q617.389 117.743 620.033 119.595Q622.678 121.446 625.263 123.379Q627.848 125.313 630.37 127.327Q632.893 129.342 635.35 131.435Q637.808 133.528 640.198 135.698Q642.588 137.867 644.909 140.112Q647.229 142.356 649.477 144.672Q651.726 146.989 653.9 149.375Q656.074 151.761 658.171 154.215Q660.269 156.669 662.288 159.188Q664.307 161.707 666.245 164.288C672.118 172.26 677.062 180.73 681.957 189.321C687.352 198.789 692.7 208.252 696.536 218.483Q692.158 216.646 687.601 215.315Q686.591 215.03 685.574 214.771Q684.558 214.512 683.535 214.277Q682.512 214.043 681.484 213.834Q680.455 213.625 679.422 213.442Q678.389 213.258 677.352 213.1Q676.314 212.943 675.273 212.81Q674.233 212.678 673.189 212.572Q672.145 212.465 671.099 212.385Q670.052 212.304 669.004 212.25Q667.957 212.195 666.908 212.166Q665.859 212.138 664.809 212.135Q663.76 212.132 662.711 212.155Q661.662 212.178 660.614 212.227Q659.566 212.276 658.519 212.351Q657.473 212.426 656.428 212.527Q655.384 212.628 654.342 212.754Q653.3 212.881 652.262 213.033Q651.224 213.185 650.19 213.363Q649.156 213.541 648.126 213.744Q647.097 213.948 646.073 214.177Q645.049 214.405 644.031 214.659Q643.013 214.913 642.001 215.192Q640.99 215.472 639.985 215.776Q638.981 216.08 637.985 216.408Q636.988 216.737 636 217.09Q635.012 217.444 634.033 217.821Q633.054 218.199 632.085 218.6Q631.115 219.002 630.156 219.428Q629.197 219.853 628.249 220.302Q627.3 220.751 626.363 221.224Q625.426 221.696 624.501 222.191Q623.576 222.687 622.664 223.205C600.239 235.818 585.348 257.128 578.378 281.642Q577.584 281.34 576.784 281.055C560.676 275.267 546.169 278.5 531.183 285.569Q530.338 281.082 529.038 276.706Q527.738 272.329 525.996 268.109C516.09 243.509 496.768 225.846 472.627 215.674C469.957 214.429 467.046 213.41 464.227 212.56C441.332 205.65 415.233 209.17 394.367 220.538C378.233 229.33 362.98 244.842 355.229 261.591C351.847 268.9 349.696 276.696 347.423 284.4C329.786 288.05 312.912 297.388 297.613 306.567C298.974 291.669 302.628 276.666 306.507 262.248C318.595 217.319 337.081 175.232 369.231 140.986C405.022 102.861 450.763 86.3617 502.328 84.7386Z"/>
	<path fill="#4A93CC" d="M344.701 323.518L345.671 323.707C346.884 326.502 347.19 329.918 348.035 332.873Q348.364 334.063 348.722 335.244Q349.08 336.426 349.468 337.598Q349.856 338.77 350.273 339.931Q350.689 341.093 351.135 342.245Q351.581 343.396 352.055 344.536Q352.529 345.675 353.032 346.803Q353.535 347.93 354.065 349.045Q354.596 350.159 355.154 351.261Q355.712 352.362 356.298 353.448Q356.883 354.535 357.496 355.607Q358.109 356.679 358.748 357.735Q359.387 358.791 360.052 359.831Q360.717 360.871 361.408 361.894Q362.099 362.917 362.816 363.922Q363.532 364.927 364.273 365.914Q365.014 366.902 365.78 367.87Q366.545 368.838 367.335 369.787Q368.125 370.736 368.938 371.665Q369.751 372.594 370.587 373.502Q371.422 374.411 372.281 375.298Q373.139 376.185 374.019 377.051Q374.9 377.916 375.801 378.759Q376.703 379.603 377.625 380.423Q378.547 381.244 379.49 382.041Q380.432 382.838 381.395 383.612Q382.357 384.385 383.338 385.134Q384.319 385.883 385.318 386.608Q386.318 387.332 387.335 388.032Q388.353 388.731 389.387 389.404Q390.422 390.078 391.473 390.726Q392.523 391.373 393.59 391.994Q394.657 392.616 395.739 393.21C419.202 406.077 443.506 407.003 468.801 399.547C465.335 416.574 464.601 434.348 465.456 451.66C466.643 475.701 470.585 508.646 489.479 525.53C499.5 534.485 513.551 538.072 526.732 537.32C546.583 536.186 561.491 526.971 574.43 512.486C577.245 521.213 577.632 532.069 575.713 541.026C575.079 543.986 573.872 546.838 573.291 549.785C573.021 551.155 572.68 552.587 573.712 553.715C574.181 554.227 574.855 554.74 575.568 554.75C579.073 554.799 583.258 550.103 585.576 547.785Q587.304 546.048 588.989 544.268Q590.674 542.489 592.314 540.668Q593.955 538.848 595.55 536.988Q597.145 535.127 598.694 533.228Q600.242 531.329 601.744 529.392Q603.245 527.456 604.698 525.483Q606.151 523.509 607.556 521.501Q608.96 519.493 610.314 517.45Q611.668 515.408 612.971 513.333Q614.275 511.258 615.526 509.151Q616.778 507.044 617.978 504.907Q619.177 502.77 620.323 500.605Q621.47 498.439 622.562 496.245Q623.655 494.052 624.693 491.832Q625.732 489.612 626.715 487.368Q627.698 485.123 628.625 482.855Q629.553 480.587 630.424 478.296Q631.295 476.006 632.11 473.695Q632.925 471.384 633.682 469.053Q634.439 466.723 635.139 464.374Q635.838 462.025 636.48 459.66Q637.121 457.295 637.704 454.915Q638.287 452.535 638.811 450.141Q639.335 447.747 639.8 445.341Q640.265 442.935 640.671 440.519Q641.076 438.102 641.422 435.676Q641.767 433.25 642.053 430.816Q642.339 428.382 642.565 425.942Q642.79 423.502 642.956 421.057Q643.121 418.612 643.226 416.164Q643.331 413.716 643.376 411.266Q643.421 408.815 643.405 406.365C664.775 411.232 689.729 405.964 708.225 394.632Q705.514 420.091 702.118 445.468C700.722 454.768 699.568 464.117 698.303 473.437C690.317 473.162 682.329 472.229 674.342 472.093C668.966 472.001 665.083 473.614 661.255 477.462C656.996 481.743 654.072 487.793 652.686 493.637C650.153 504.317 651.048 516.354 650.822 527.298L649.789 575.975Q627.741 583.279 604.992 587.963Q598.358 589.348 591.683 590.526Q585.009 591.704 578.301 592.672Q571.594 593.641 564.859 594.4Q558.124 595.159 551.369 595.708Q544.614 596.256 537.845 596.593Q531.076 596.93 524.299 597.056Q517.523 597.182 510.746 597.097Q503.969 597.011 497.199 596.714Q490.428 596.417 483.669 595.909Q476.911 595.4 470.172 594.681Q463.433 593.962 456.719 593.034Q450.006 592.105 443.325 590.967Q436.644 589.829 430.001 588.483Q423.359 587.137 416.762 585.584Q410.164 584.031 403.619 582.274Q397.073 580.516 390.586 578.555C377.342 574.499 364.043 570.107 351.471 564.244C339.861 558.828 329.344 552.205 318.627 545.229C314.67 532.68 311.979 519.883 308.853 507.119C294.911 450.184 289.345 404.921 292.751 346.181C309.518 338.005 326.794 328.815 344.701 323.518Z"/>
	<defs>
		<linearGradient id="gradient_3" gradientUnits="userSpaceOnUse" x1="805.54132" y1="937.08862" x2="699.21533" y2="633.84735">
			<stop offset="0" stop-color="#C3C6B3"/>
			<stop offset="1" stop-color="#BEC2C5"/>
		</linearGradient>
	</defs>
	<path fill="url(#gradient_3)" d="M654.791 648.313C677.266 648.621 699.791 650.429 722.24 651.58L868.001 659.723L861.121 827.793C860.631 839.215 858.82 912.371 856.048 917.988C854.469 921.19 851.129 922.439 847.961 923.526C839.529 923.975 830.778 923.04 822.332 922.687Q796.337 921.637 770.359 920.231Q754.411 919.411 738.453 918.786C731.935 918.513 725.198 918.527 718.736 917.622C710.844 916.516 703.686 911.731 695.891 909.796C675.863 904.824 655.575 905.505 635.122 905.491C636.604 892.478 637.749 879.423 639.308 866.421C641.072 851.702 643.214 837.01 644.632 822.252C647.074 796.856 648.737 771.165 650.394 745.698Q651.982 719.986 653.158 694.251C653.725 678.946 653.891 663.602 654.791 648.313Z"/>
	<path fill="#010001" d="M809.687 673.072C815.594 672.852 849.388 674.345 852.576 676.05C854.263 676.953 855.27 679.359 855.808 681.109C857.873 687.833 856.915 713.058 853.373 718.971C852.029 721.215 850.21 721.81 847.775 722.379C839.334 722.341 811.033 721.563 804.487 718.598C802.884 717.872 801.883 717.103 801.316 715.36C800.08 711.562 801.425 685.93 802.105 681.757C802.381 680.061 802.884 678.321 803.768 676.837C805.195 674.443 807.116 673.798 809.687 673.072Z"/>
	<path fill="#B2E6F0" d="M805.815 682.607C805.908 681.294 805.906 679.521 806.649 678.385C807.489 677.101 808.855 676.583 810.311 676.482C816.2 676.071 844.236 677.572 849.645 678.855C850.842 679.139 851.648 679.812 852.586 680.573L849.576 681.258C837.443 681.09 825.329 679.515 813.188 679.381C811.024 679.358 809.636 679.269 808.017 680.849C807.308 681.457 806.622 682.135 805.815 682.607Z"/>
	<path fill="#117279" d="M852.586 680.573C853.477 686.601 853.115 711.519 851.109 716.949C847.371 720.057 818.447 717.276 812.201 716.705C810.092 716.512 806.543 716.417 805.115 714.679C804.716 714.193 804.532 713.636 804.37 713.044C817.623 715.071 833.126 714.519 846.693 714.94C849.416 706.045 849.041 690.801 849.576 681.258L852.586 680.573Z"/>
	<path fill="#23A5BA" d="M808.017 680.849C809.636 679.269 811.024 679.358 813.188 679.381C825.329 679.515 837.443 681.09 849.576 681.258C849.041 690.801 849.416 706.045 846.693 714.94C833.126 714.519 817.623 715.071 804.37 713.044L804.612 712.639C803.676 705.97 804.761 689.502 805.815 682.607C806.622 682.135 807.308 681.457 808.017 680.849Z"/>
	<path fill="#7CD0E0" d="M805.815 682.607C806.622 682.135 807.308 681.457 808.017 680.849C807.623 684.92 806.275 710.695 804.612 712.639C803.676 705.97 804.761 689.502 805.815 682.607Z"/>
	<path fill="#010001" d="M666.404 840.613C672.822 839.648 702.879 841.694 709.41 842.991C713.18 843.739 714.324 845.029 716.441 848.158C717.004 858.263 716.227 869.572 715.193 879.644C714.747 883.982 714.166 887.43 710.685 890.292Q708.997 890.78 707.244 890.897C700.631 891.376 667.815 890.375 663.985 886.188C659.333 881.1 661.157 855.416 662.179 848.501C662.744 844.678 663.251 842.917 666.404 840.613Z"/>
	<path fill="#4A93CC" d="M665.712 846.784C666.515 845.767 667.164 844.444 668.547 844.208C672.746 843.493 701.589 845.464 706.991 846.281C708.466 846.504 709.579 846.924 710.886 847.629C708.029 848.339 704.071 847.469 701.052 847.308C691.259 846.785 674.872 845.125 665.712 846.784Z"/>
	<path fill="#092A65" d="M711.753 848.182C712.208 848.791 712.469 849.286 712.528 850.06C712.831 854.018 712.03 858.381 711.811 862.361C711.473 868.514 711.695 874.904 710.772 880.999C710.497 882.81 710.19 884.319 709.221 885.884C704.971 887.694 672.357 885.821 667.674 884.105C666.441 883.653 665.746 882.79 665.236 881.622C664.179 879.199 664.477 876.308 664.614 873.733C664.761 875.018 664.92 876.296 664.962 877.59C664.969 877.811 664.967 878.033 664.97 878.254C666.48 878.797 667.914 879.193 669.508 879.407C674.845 880.122 680.578 879.683 685.979 879.956C690.426 880.182 694.973 881.03 699.421 880.876C700.84 880.827 702.607 880.748 703.86 879.994C709.032 876.882 706.159 855.15 708.427 848.966C709.547 848.559 710.583 848.374 711.753 848.182Z"/>
	<path fill="#1151A8" d="M665.712 846.784C674.872 845.125 691.259 846.785 701.052 847.308C704.071 847.469 708.029 848.339 710.886 847.629L711.753 848.182C710.583 848.374 709.547 848.559 708.427 848.966C706.159 855.15 709.032 876.882 703.86 879.994C702.607 880.748 700.84 880.827 699.421 880.876C694.973 881.03 690.426 880.182 685.979 879.956C680.578 879.683 674.845 880.122 669.508 879.407C667.914 879.193 666.48 878.797 664.97 878.254C664.967 878.033 664.969 877.811 664.962 877.59C664.92 876.296 664.761 875.018 664.614 873.733C664.858 864.866 664.62 855.588 665.712 846.784Z"/>
	<path fill="#010001" d="M740.8 669.085C749.633 668.041 759.633 669.76 768.496 670.314C773.347 670.617 778.351 670.262 783.155 671.027C785.551 671.408 787.75 672.096 789.13 674.218C790.398 676.167 790.921 678.513 791.1 680.804C791.635 687.649 790.545 707.406 789.071 714.157C787.67 715.723 786.274 716.919 784.556 718.127C778.847 719.384 749.435 718.06 743.273 716.74C740.821 716.214 737.607 715.399 736.279 713.059C733.563 708.276 735.258 680.009 736.783 674.162C737.458 671.572 738.515 670.4 740.8 669.085Z"/>
	<path fill="#092A65" d="M783.462 673.947C785.152 674.677 786.414 675.542 787.074 677.35C788.482 681.208 787.109 709.787 785.459 713.15C784.995 714.096 783.526 714.478 782.567 714.701C776.893 716.023 743.108 714.626 739.524 711.82C738.003 710.631 737.994 708.596 737.934 706.862C752.276 707.497 766.505 709.694 780.908 709.805C781.634 700.937 780.947 681.128 783.462 673.947Z"/>
	<path fill="#1151A8" d="M737.934 706.862C738.033 700.55 737.341 676.605 741.06 672.94C743.196 670.837 778.714 673.482 783.462 673.947C780.947 681.128 781.634 700.937 780.908 709.805C766.505 709.694 752.276 707.497 737.934 706.862Z"/>
	<path fill="#010001" d="M738.505 727.604C746.98 727.463 771.361 728.693 778.826 730.532C781.658 731.23 785.092 732.537 786.583 735.257C788.912 739.504 786.931 767.699 785.293 772.75C784.467 775.297 782.238 776.11 780.019 777.155C772.226 778.525 744.755 777.818 737.122 775.896C735.344 775.448 733.98 774.87 733.104 773.181C732.107 771.256 731.705 768.85 731.547 766.712C731.169 761.569 732.086 734.102 733.867 730.609C734.857 728.666 736.577 728.23 738.505 727.604Z"/>
	<path fill="#D6DCDF" d="M754.895 732.024C761.725 732.284 775.135 731.529 781.109 734.796L780.48 736.178C773.329 734.832 765.564 734.081 758.282 734.002C756.827 733.548 755.821 733.34 754.895 732.024Z"/>
	<path fill="#0C525D" d="M781.109 734.796C782.65 735.796 783.364 736.498 783.748 738.344C784.679 742.815 783.633 768.612 781.399 771.635C780.124 773.36 776.425 773.754 774.448 773.945C768.164 774.553 741.73 774.063 736.512 771.627C735.115 770.223 734.602 768.946 734.395 766.977C742.006 767.139 770.612 770.329 776.349 768.186C779.036 762.613 779.734 743.51 780.48 736.178L781.109 734.796Z"/>
	<path fill="#23A5BA" d="M735.659 735.67C735.923 734.687 736.198 733.145 736.988 732.484C740.429 729.608 750.596 731.622 754.895 732.024C755.821 733.34 756.827 733.548 758.282 734.002C765.564 734.081 773.329 734.832 780.48 736.178C779.734 743.51 779.036 762.613 776.349 768.186C770.612 770.329 742.006 767.139 734.395 766.977Q734.567 757.005 735.236 747.055C735.456 743.341 736.005 739.373 735.659 735.67Z"/>
	<path fill="#B2E6F0" d="M735.659 735.67C735.923 734.687 736.198 733.145 736.988 732.484C740.429 729.608 750.596 731.622 754.895 732.024C755.821 733.34 756.827 733.548 758.282 734.002C750.743 733.557 742.618 732.137 735.659 735.67Z"/>
	<path fill="#010001" d="M801.56 791.04C810.59 790.391 835.155 791.628 843.868 794.299C846.307 795.046 847.73 795.945 848.872 798.263C851.823 804.251 850.598 829.299 848.091 835.818C846.991 838.679 845.481 839.641 842.737 840.778C833.993 841.117 807.02 839.879 799.038 837.613C797.246 837.104 796.129 836.45 795.22 834.741C794.068 832.573 793.589 830.044 793.448 827.613C793.147 822.407 793.838 800.465 795.191 796.35C796.12 793.528 799.091 792.237 801.56 791.04Z"/>
	<path fill="#7CD0E0" d="M797.139 831.033C796.699 825.967 797.435 799.723 799.459 796.446C801.486 795.147 803.805 794.797 806.183 794.669C813.326 794.283 834.271 795.027 841.205 796.9C842.476 797.243 843.424 798.046 844.388 798.904C844.154 798.997 843.925 799.102 843.687 799.184C841.029 800.091 836.259 798.664 833.511 798.302C827.527 797.514 810.248 795.582 804.985 796.477C803.231 796.775 801.701 797.525 800.795 799.136C798.866 802.565 798.654 823.868 797.889 829.396L797.139 831.033Z"/>
	<path fill="#092A65" d="M845.346 799.63C845.671 800.02 846.121 800.333 846.32 800.8C847.28 803.051 846.102 825.723 845.68 829.725C845.454 831.869 845.152 834.388 843.509 835.943C841.823 836.512 840.265 836.753 838.488 836.807C832.521 836.988 803.916 835.655 799.551 833.728C798.14 833.106 797.634 832.445 797.139 831.033L797.889 829.396C800.683 829.441 803.608 830.074 806.394 830.396C814.131 831.292 830.991 833.365 838.085 832.141C843.807 828.348 838.82 806.781 842.213 800.578C842.645 799.788 844.473 799.784 845.346 799.63Z"/>
	<path fill="#1151A8" d="M797.889 829.396C798.654 823.868 798.866 802.565 800.795 799.136C801.701 797.525 803.231 796.775 804.985 796.477C810.248 795.582 827.527 797.514 833.511 798.302C836.259 798.664 841.029 800.091 843.687 799.184C843.925 799.102 844.154 798.997 844.388 798.904L845.346 799.63C844.473 799.784 842.645 799.788 842.213 800.578C838.82 806.781 843.807 828.348 838.085 832.141C830.991 833.365 814.131 831.292 806.394 830.396C803.608 830.074 800.683 829.441 797.889 829.396Z"/>
	<path fill="#010001" d="M803.897 732.078C810.283 731.58 844.22 732.944 849.024 734.828C850.888 735.56 852.03 736.464 852.762 738.352C855.045 744.237 853.463 771.355 851.008 777.137C849.991 779.531 848.437 780.528 846.111 781.492C837.473 782.293 813.448 781.382 804.993 779.516C802.758 779.022 799.065 778.052 797.856 775.924C796.854 774.161 796.504 771.842 796.36 769.849C795.933 763.948 797.224 741.439 798.945 736.448C799.748 734.118 801.833 733.086 803.897 732.078Z"/>
	<path fill="#7CD0E0" d="M801.538 738.296C802.24 737.308 802.882 736.515 804.001 736.001C808.292 734.031 839.042 735.856 844.74 736.863C845.946 737.076 847.074 737.552 848.18 738.06L844.962 738.668C835.499 740.405 811.698 734.576 804.061 738.326L801.538 738.296Z"/>
	<path fill="#092A65" d="M848.18 738.06C849.71 739.463 849.968 740.085 850.103 742.149C850.489 748.024 849.746 772.525 847.019 776.807C841.348 779.123 809.315 777.766 803.624 775.541C801.966 774.893 800.688 773.668 800.179 771.928C800.086 771.61 800.061 771.275 800.002 770.949L800.572 771.09C802.755 772.004 838.879 773.714 842.175 772.934C845.486 769.338 844.893 744.451 844.962 738.668L848.18 738.06Z"/>
	<path fill="#1151A8" d="M804.061 738.326C811.698 734.576 835.499 740.405 844.962 738.668C844.893 744.451 845.486 769.338 842.175 772.934C838.879 773.714 802.755 772.004 800.572 771.09L800.002 770.949C799.796 760.05 801.553 749.193 801.538 738.296L804.061 738.326Z"/>
	<path fill="#4A93CC" d="M801.538 738.296L804.061 738.326C803.597 747.186 803.758 762.501 801.72 770.465C801.362 770.678 800.972 770.975 800.572 771.09L800.002 770.949C799.796 760.05 801.553 749.193 801.538 738.296Z"/>
	<path fill="#010001" d="M732.985 785.581C742.855 784.669 758.753 786.202 768.89 787.275C773.654 787.779 779.749 788.571 782.874 792.652C784.135 794.298 784.361 796.678 784.48 798.68C784.776 803.663 783.747 808.838 783.479 813.826C783.253 818.039 783.648 822.429 783.047 826.603C782.424 830.927 781.086 833.041 777.607 835.626C774.762 836.682 772.245 836.889 769.247 836.847C763.371 836.766 757.514 836.007 751.65 835.664C746.295 835.351 740.467 835.72 735.233 834.515C733.244 834.057 729.985 832.959 728.776 831.16C727.779 829.676 727.715 826.385 727.688 824.627C727.606 819.386 728.574 793.062 729.61 788.844C729.992 787.29 731.732 786.417 732.985 785.581Z"/>
	<path fill="#D6DCDF" d="M732.391 791.013C732.603 790.595 732.724 790.289 733.078 789.938C735.483 787.547 740.661 788.696 743.672 788.953C742.592 790.064 742.161 790.725 740.507 790.833C738.973 790.933 737.513 790.506 736.125 791.33L733.316 791.799L732.391 791.013Z"/>
	<path fill="#B2E6F0" d="M743.672 788.953Q754.94 789.118 766.144 790.332C770.539 790.667 775.175 790.756 778.906 793.403C776.713 794.66 771.994 793.155 769.553 792.652Q752.866 791.308 736.125 791.33C737.513 790.506 738.973 790.933 740.507 790.833C742.161 790.725 742.592 790.064 743.672 788.953Z"/>
	<defs>
		<linearGradient id="gradient_4" gradientUnits="userSpaceOnUse" x1="781.46338" y1="798.8111" x2="744.59845" y2="838.77631">
			<stop offset="0" stop-color="#045853"/>
			<stop offset="1" stop-color="#167074"/>
		</linearGradient>
	</defs>
	<path fill="url(#gradient_4)" d="M780.455 795.578C781.361 801.329 780.328 827.252 777.555 831.092C776.578 832.444 772.421 832.67 770.735 832.75C764.2 833.058 737.547 831.791 732.597 829.501C730.483 826.856 730.839 823.544 731.186 820.359C731.259 819.686 731.323 819.007 731.433 818.338C731.469 820.22 731.612 822.049 731.832 823.918C736.541 825.392 761.699 826.211 767.761 826.117C768.881 826.1 770.989 826.23 771.982 825.695C777.196 822.883 772.9 800.564 777.031 796.298C778.062 796.227 778.864 796.189 779.847 795.832C780.053 795.757 780.252 795.663 780.455 795.578Z"/>
	<path fill="#23A5BA" d="M732.391 791.013L733.316 791.799L736.125 791.33Q752.866 791.308 769.553 792.652C771.994 793.155 776.713 794.66 778.906 793.403C779.426 794.12 779.982 794.829 780.455 795.578C780.252 795.663 780.053 795.757 779.847 795.832C778.864 796.189 778.062 796.227 777.031 796.298C772.9 800.564 777.196 822.883 771.982 825.695C770.989 826.23 768.881 826.1 767.761 826.117C761.699 826.211 736.541 825.392 731.832 823.918C731.612 822.049 731.469 820.22 731.433 818.338C731.698 809.287 731.631 800.029 732.391 791.013Z"/>
	<path fill="#010001" d="M670.769 781.16C680.104 780.806 702.158 781.512 710.999 783.532C713.029 783.995 716.802 784.921 717.908 786.87C718.871 788.568 719.125 790.973 719.239 792.889C719.592 798.871 718.572 824.88 716.956 829.332C716.132 831.599 714.64 832.354 712.595 833.436C704.766 834.028 676.135 832.56 669.281 830.246C667.385 829.606 666.513 828.856 665.666 827.051C664.725 825.046 664.373 822.737 664.25 820.543C663.96 815.351 664.542 788.193 666.269 784.621C667.249 782.594 668.81 781.976 670.769 781.16Z"/>
	<path fill="#4A93CC" d="M668.301 789.141C668.478 787.532 668.607 785.817 669.873 784.693C675.973 783.214 707.448 785.323 713.395 787.867C706.891 791.001 679.956 783.196 668.301 789.141Z"/>
	<path fill="#092A65" d="M714.396 788.456C715.423 789.431 715.375 789.587 715.44 791.015C715.756 797.977 714.761 823.434 712.417 829.076C709.505 831.134 677.226 828.442 672.118 827.586C669.734 827.187 668.669 825.934 667.329 824.019C667.89 823.377 668.486 822.587 669.333 822.307C676.609 819.899 699.622 825.714 706.608 823.328C714.673 820.574 708.229 796.208 711.985 789.469C712.382 788.756 713.635 788.666 714.396 788.456Z"/>
	<path fill="#1151A8" d="M668.301 789.141C679.956 783.196 706.891 791.001 713.395 787.867L714.396 788.456C713.635 788.666 712.382 788.756 711.985 789.469C708.229 796.208 714.673 820.574 706.608 823.328C699.622 825.714 676.609 819.899 669.333 822.307C668.486 822.587 667.89 823.377 667.329 824.019C665.882 816.989 667.348 797.047 668.301 789.141Z"/>
	<path fill="#010001" d="M673.627 664.575C673.793 664.56 673.959 664.543 674.125 664.532C681.708 664.022 709.31 665.209 716.743 666.593C719.095 667.031 722.121 667.822 723.922 669.497C725.926 671.361 726.008 675.79 725.952 678.344C725.831 683.78 725.119 706.34 723.753 710.691C723.146 712.622 722.122 713.799 720.689 715.185C719.811 715.404 718.972 715.561 718.066 715.619C712.501 715.972 706.593 715.074 701.016 714.794C693.891 714.437 685.986 714.753 678.973 713.52C676.571 713.097 672.376 712.015 670.737 710.038C668.23 707.015 670.183 676.163 670.808 670.604C671.116 667.858 671.442 666.337 673.627 664.575Z"/>
	<path fill="#D6DCDF" d="M674.095 669.905C675.399 668.382 675.921 667.786 678.055 667.683C684.883 667.354 715.129 669.007 720.371 671.332L717.676 672.181C708.431 670.561 694.221 670.317 684.533 670.034C681.359 669.941 677.071 670.603 674.095 669.905Z"/>
	<defs>
		<linearGradient id="gradient_5" gradientUnits="userSpaceOnUse" x1="694.88385" y1="711.96313" x2="703.94275" y2="669.1059">
			<stop offset="0" stop-color="#106774"/>
			<stop offset="1" stop-color="#13868F"/>
		</linearGradient>
	</defs>
	<path fill="url(#gradient_5)" d="M720.371 671.332C722.047 672.783 722.393 673.55 722.523 675.761C722.816 680.708 721.385 707.474 719.382 710.121C718.524 711.255 714.82 711.276 713.377 711.313C707.673 711.457 676.766 710.646 673.918 707.831C672.689 706.616 672.43 705.038 672.324 703.413C686.758 703.182 701.378 705.312 715.852 705.544C717.826 694.68 716.6 683.201 717.676 672.181L720.371 671.332Z"/>
	<path fill="#23A5BA" d="M674.095 669.905C677.071 670.603 681.359 669.941 684.533 670.034C694.221 670.317 708.431 670.561 717.676 672.181C716.6 683.201 717.826 694.68 715.852 705.544C701.378 705.312 686.758 703.182 672.324 703.413C673.048 692.25 673.336 681.067 674.095 669.905Z"/>
	<path fill="#010001" d="M798.531 847.654C806.183 847.646 834.423 848.554 840.733 850.231C842.593 850.725 844.506 851.804 845.404 853.583C847.98 858.685 846.642 887.352 844.539 892.976C843.431 895.94 841.463 897.289 838.691 898.564C831.275 899.37 801.375 898.465 795.634 895.758C793.667 894.831 791.479 893.123 790.821 890.956C789.494 886.586 790.742 854.701 792.811 850.97C793.96 848.896 796.413 848.212 798.531 847.654Z"/>
	<path fill="#F9FBFC" d="M794.404 854.933C794.837 853.921 795.264 852.877 796.191 852.207C799.734 849.647 822.796 851.812 828.099 852.447C831.909 852.463 836.377 852.277 840.003 853.608C836.542 855.853 827.519 854.255 823.539 853.948C819.311 853.879 802.45 852.639 799.474 853.509C797.807 853.997 796.386 855.047 795.058 856.133L794.404 854.933Z"/>
	<path fill="#B57C0B" d="M840.878 853.848C842.695 855.464 843.01 856.251 843.18 858.664C843.534 863.672 842.598 890.46 840.35 893.069C837.781 896.05 808.452 893.718 803.761 893.406C801.05 893.226 796.64 892.994 794.639 891.117C792.534 887.295 793.292 881.051 793.936 876.819C794.164 879.385 793.914 882.018 793.802 884.589C795.19 885.94 796.677 887.154 798.17 888.386C803.153 889.031 835.293 891.059 837.614 889.141C840.431 886.814 840.666 859.063 840.878 853.848Z"/>
	<path fill="#F0B35C" d="M840.003 853.608L840.878 853.848C840.666 859.063 840.431 886.814 837.614 889.141C835.293 891.059 803.153 889.031 798.17 888.386C796.677 887.154 795.19 885.94 793.802 884.589C793.914 882.018 794.164 879.385 793.936 876.819C793.983 869.506 794.803 862.262 794.404 854.933L795.058 856.133C796.386 855.047 797.807 853.997 799.474 853.509C802.45 852.639 819.311 853.879 823.539 853.948C827.519 854.255 836.542 855.853 840.003 853.608Z"/>
	<path fill="#010001" d="M674.008 722.556C684.716 722.004 701.913 723.378 712.754 724.599C715.185 724.873 719.424 725.463 720.916 727.589C722.126 729.313 722.654 731.835 722.837 733.899C723.411 740.381 722.171 763.983 720.758 770.325C720.165 772.982 718.42 773.92 716.231 775.219C711.525 776.028 681.875 773.841 676.609 772.903C672.313 772.138 670.001 769.86 667.534 766.376C667.143 758.611 668.094 735.185 669.546 727.684C670.082 724.92 671.786 724.001 674.008 722.556Z"/>
	<path fill="#117279" d="M715.874 728.474C717.291 729.641 718.802 730.595 718.978 732.569C719.498 738.415 717.743 766.119 715.67 770.777C712.531 772.28 679.001 769.647 674.488 768.178C672.995 767.692 671.809 766.732 670.801 765.546C680.852 763.904 704.084 768.241 711.614 765.458C715.906 758.681 712.123 737.371 715.538 729.219C715.644 728.968 715.762 728.722 715.874 728.474Z"/>
	<path fill="#23A5BA" d="M670.801 765.546C670.174 758.368 671.241 738.143 672.282 730.678C672.498 729.126 672.563 727.633 673.857 726.65C680.146 725.546 709.705 726.912 715.874 728.474C715.762 728.722 715.644 728.968 715.538 729.219C712.123 737.371 715.906 758.681 711.614 765.458C704.084 768.241 680.852 763.904 670.801 765.546Z"/>
	<path fill="#010001" d="M729.944 844.527C736.878 843.994 744.292 844.935 751.228 845.358C758.615 845.807 766.378 845.853 773.673 847.095C775.784 847.455 778.249 847.807 779.462 849.745C782.427 854.482 780.38 881.541 778.957 887.481C778.094 891.085 776.903 892.834 773.741 894.73C771.982 895.134 770.278 895.351 768.476 895.347C761.507 895.33 754.489 894.448 747.527 894.062C742.286 893.772 736.542 894.323 731.433 893.144C728.902 892.56 726.383 891.218 725.036 888.905C722.562 884.653 723.888 854.77 725.456 849.047C726.145 846.53 727.825 845.683 729.944 844.527Z"/>
	<path fill="#092A65" d="M774.319 850.313C775.879 851.582 776.653 852.425 776.877 854.482C777.383 859.11 776.215 863.604 775.98 868.196C775.69 873.851 776.228 879.911 775.301 885.484C775.086 886.777 774.74 888.517 773.815 889.502C771.297 892.186 739.922 889.944 734.481 889.345C732.214 889.096 729.113 888.946 727.696 886.937C726.647 885.45 726.439 883.588 726.367 881.825C733.756 883.432 761.536 885.34 769.224 884.498C773.121 881.702 770.676 857.264 774.102 850.709C774.172 850.576 774.246 850.445 774.319 850.313Z"/>
	<path fill="#1151A8" d="M726.367 881.825C726.54 876.1 726.311 851.348 729.422 848.146C733.891 846.524 768.56 849.243 774.319 850.313C774.246 850.445 774.172 850.576 774.102 850.709C770.676 857.264 773.121 881.702 769.224 884.498C761.536 885.34 733.756 883.432 726.367 881.825Z"/>
	<path fill="#4A93CC" d="M273.466 644.222Q275.562 644.225 277.654 644.355C295.583 645.43 308.908 657.008 320.333 669.911C359.847 714.535 364.776 780.575 361.315 837.346Q354.505 836.967 347.688 837.158Q340.87 837.349 334.092 838.109C307.961 841.204 271.27 852.229 254.518 873.538C285.284 850.798 328.314 841.745 366.088 847.345C379.857 849.386 393.568 854.266 406.893 858.21C436.421 866.951 465.823 876.162 495.621 883.952C506.406 886.772 520.007 890.75 530.944 892.196C533.49 890.411 549.664 860.359 553.172 854.742C562.825 839.28 576.516 816.724 591.126 805.685C596.248 801.815 603.043 798.762 609.326 797.493C613.299 796.69 618.136 797.796 621.469 800.054C626.945 803.763 629.774 813.116 630.743 819.341C635.241 848.255 617.66 879.092 601.382 901.912C594.872 911.038 587.676 919.675 581.058 928.725C588.037 922.767 594.173 916.285 600.357 909.531C607.051 912.155 615.022 912.197 622.124 912.683C648.084 914.612 688.856 909.482 710.705 924.367C713.597 926.337 716.259 928.884 716.843 932.496C717.31 935.384 715.926 938.262 714.203 940.485C710.276 945.551 704.194 949.119 698.426 951.685C682.475 958.781 663.176 962.779 646.15 966.591C618.745 972.727 591.318 978.161 563.452 981.775C455.389 995.787 334.203 990.751 232.82 948.314C222.364 943.937 211.935 939.524 201.916 934.202C181.812 923.52 166.885 912.495 148.967 898.673C149.135 831.583 164.129 752.952 202.563 696.827C206.804 690.634 211.144 684.246 216.204 678.693C231.495 661.912 249.648 645.326 273.466 644.222Z"/>
</svg>
